<svg xmlns="http://www.w3.org/2000/svg"  viewBox="0 0 512 512" width="256px" height="256px"><polygon fill="#ecebed" points="326.949,111 96,111 96,306 96,481 406.949,481 406.949,111"/><rect width="230" height="50" x="136" y="396" fill="#3abeff"/><path fill="#ef3734" d="M456,306c11.05,0,20,8.95,20,20s-8.95,20-20,20c-11.04,0-20-8.95-20-20S444.96,306,456,306z"/><path fill="#ef3734" d="M56,46c11.05,0,20,8.95,20,20s-8.95,20-20,20c-11.04,0-20-8.95-20-20S44.96,46,56,46z"/><path fill="#d6a885" d="M338.119,326.88c9.511,8.63,9.871,23.46,0.791,32.54c-4.4,4.4-10.15,6.58-15.891,6.58 c-6.109,0-12.199-2.47-16.65-7.37l-54.839-62.71l-22.19-25.37l-14.17-16.2c-17.74,7.69-42,1.88-59.76-15.88 c-21.89-21.88-25.62-53.63-8.35-70.9c17.28-17.28,49.02-13.54,70.9,8.34c17.77,17.76,23.57,42.02,15.89,59.77l17.68,15.46 l22.19,19.41L338.119,326.88z"/><path fill="#ffc99c" d="M251.53,295.92l-54.85,62.71c-4.45,4.9-10.54,7.37-16.65,7.37c-5.74,0-11.49-2.18-15.89-6.58 c-9.08-9.08-8.72-23.91,0.79-32.54l64.41-56.33L251.53,295.92z"/><path d="M456,386c5.52,0,10,4.48,10,10s-4.48,10-10,10s-10-4.48-10-10S450.48,386,456,386z"/><path d="M446,176c5.52,0,10,4.48,10,10s-4.48,10-10,10s-10-4.48-10-10S440.48,176,446,176z"/><path d="M406,46c5.52,0,10,4.48,10,10s-4.48,10-10,10s-10-4.48-10-10S400.48,46,406,46z"/><path fill="#ffc99c" d="M355.99,167.57c17.27,17.27,13.539,49.02-8.34,70.9c-17.771,17.76-42.031,23.57-59.771,15.88 l-14.16,16.2l-22.19-19.41l17.669-15.46c-7.68-17.75-1.879-42.01,15.891-59.77C306.97,154.03,338.71,150.29,355.99,167.57z"/><polygon fill="#c5c4c6" points="326.949,31 326.949,111 96,111"/><path d="M276,136c5.52,0,10,4.48,10,10s-4.48,10-10,10s-10-4.48-10-10S270.48,136,276,136z"/><path d="M236,146c5.52,0,10,4.48,10,10s-4.48,10-10,10s-10-4.48-10-10S230.48,146,236,146z"/><path d="M56,336c5.52,0,10,4.48,10,10s-4.48,10-10,10s-10-4.48-10-10S50.48,336,56,336z"/><path d="M46,156c5.52,0,10,4.48,10,10s-4.48,10-10,10s-10-4.48-10-10S40.48,156,46,156z"/><path d="M406.949,491H96c-5.523,0-10-4.478-10-10V111c0-5.523,4.477-10,10-10s10,4.477,10,10v360h290.949V121h-70 c-5.522,0-10-4.477-10-10s4.478-10,10-10h80c5.523,0,10,4.477,10,10v370C416.949,486.522,412.473,491,406.949,491z"/><path d="M180.03,376c-8.675,0-16.829-3.377-22.961-9.509c-6.345-6.346-9.719-14.78-9.502-23.751 c0.217-8.973,3.997-17.234,10.643-23.266c0.045-0.041,0.091-0.082,0.137-0.122l64.41-56.33c4.157-3.635,10.475-3.213,14.11,0.944 s3.213,10.475-0.944,14.11l-64.331,56.261c-2.518,2.313-3.948,5.466-4.031,8.887c-0.083,3.446,1.213,6.687,3.65,9.124 c2.354,2.354,5.486,3.651,8.819,3.651c3.54,0,6.801-1.432,9.192-4.033l54.781-62.631c3.636-4.157,9.954-4.579,14.11-0.943 c4.157,3.637,4.58,9.954,0.943,14.111l-54.85,62.71c-0.041,0.046-0.082,0.093-0.124,0.139C197.938,372.119,189.171,376,180.03,376 z"/><path d="M273.716,280.55c-2.336,0-4.681-0.813-6.577-2.471c-4.158-3.635-4.583-9.952-0.948-14.11l14.16-16.2 c2.862-3.275,7.517-4.324,11.507-2.594c14.348,6.22,34.383,0.554,48.724-13.778c17.945-17.946,21.687-43.407,8.337-56.756 c-6.146-6.147-15.197-8.867-25.484-7.655c-11.166,1.314-22.272,6.995-31.272,15.995c-14.333,14.324-19.999,34.361-13.784,48.729 c1.727,3.988,0.678,8.635-2.592,11.497l-17.67,15.46c-4.157,3.638-10.474,3.216-14.111-0.941 c-3.637-4.156-3.215-10.474,0.941-14.11l12.635-11.055c-5.452-20.812,2.248-45.541,20.441-63.723 c12.163-12.164,27.461-19.876,43.074-21.713c16.494-1.942,31.398,2.809,41.965,13.375c21.146,21.147,17.406,59.297-8.34,85.042 c-18.198,18.188-42.926,25.885-63.719,20.433l-9.753,11.157C279.271,279.393,276.5,280.55,273.716,280.55z"/><path d="M323.02,376c-9.141,0-17.908-3.881-24.053-10.647c-0.042-0.046-0.084-0.093-0.125-0.14l-86.793-99.242 c-4.33,1.131-8.886,1.701-13.617,1.701c-17.77,0.001-36.028-8.065-50.093-22.13c-12.168-12.163-19.882-27.463-21.72-43.082 c-1.941-16.496,2.807-31.398,13.37-41.961c8.895-8.894,21.305-13.792,34.945-13.792c17.772,0,36.033,8.067,50.098,22.132 c18.189,18.179,25.889,42.908,20.439,63.719l99.233,86.795c0.046,0.04,0.092,0.081,0.137,0.122 c6.646,6.03,10.426,14.293,10.643,23.265c0.219,8.972-3.156,17.406-9.502,23.752C339.85,372.623,331.695,376,323.02,376z M313.826,351.966c2.393,2.602,5.654,4.034,9.193,4.034c3.333,0,6.465-1.297,8.818-3.65c2.438-2.438,3.734-5.679,3.65-9.126 c-0.082-3.421-1.514-6.573-4.031-8.886l-104.19-91.13c-3.272-2.861-4.321-7.509-2.595-11.499 c6.216-14.367,0.549-34.404-13.781-48.726c-10.345-10.345-23.45-16.276-35.958-16.276c-5.871,0-14.245,1.376-20.803,7.934 c-6.143,6.144-8.86,15.193-7.649,25.481c1.314,11.17,6.996,22.277,15.998,31.275c10.344,10.344,23.447,16.275,35.952,16.274 c4.646,0,8.939-0.84,12.762-2.497c3.988-1.729,8.64-0.683,11.504,2.591L313.826,351.966z"/><path d="M326.949,121H96c-4.882,0-9.051-3.526-9.861-8.34c-0.811-4.815,1.975-9.511,6.588-11.109l230.95-80 c3.057-1.059,6.437-0.574,9.072,1.303c2.636,1.876,4.2,4.912,4.2,8.146v80C336.949,116.523,332.473,121,326.949,121z M155.42,101 h161.529V45.047L155.42,101z"/><path d="M366,456H136c-5.523,0-10-4.478-10-10v-50c0-5.522,4.477-10,10-10h230c5.523,0,10,4.478,10,10v50 C376,451.522,371.523,456,366,456z M146,436h210v-30H146V436z"/><path d="M366,286h-20c-5.523,0-10-4.478-10-10s4.477-10,10-10h20c5.523,0,10,4.478,10,10S371.523,286,366,286z"/><path d="M406,316h-50c-5.523,0-10-4.478-10-10s4.477-10,10-10h50c5.523,0,10,4.478,10,10S411.523,316,406,316z"/><path d="M156,286h-20c-5.523,0-10-4.478-10-10s4.477-10,10-10h20c5.523,0,10,4.478,10,10S161.523,286,156,286z"/><path d="M146,316H96c-5.523,0-10-4.478-10-10s4.477-10,10-10h50c5.523,0,10,4.478,10,10S151.523,316,146,316z"/><path d="M56,96c-16.542,0-30-13.458-30-30s13.458-30,30-30s30,13.458,30,30S72.542,96,56,96z M56,56c-5.514,0-10,4.486-10,10 s4.486,10,10,10s10-4.486,10-10S61.514,56,56,56z"/><path d="M456,356c-16.542,0-30-13.458-30-30s13.458-30,30-30s30,13.458,30,30S472.542,356,456,356z M456,316 c-5.514,0-10,4.486-10,10s4.486,10,10,10s10-4.486,10-10S461.514,316,456,316z"/></svg>